<?xml version="1.0" standalone="no"?>
<!DOCTYPE svg PUBLIC "-//W3C//DTD SVG 20010904//EN"
 "http://www.w3.org/TR/2001/REC-SVG-20010904/DTD/svg10.dtd">
<svg version="1.0" xmlns="http://www.w3.org/2000/svg"
 width="700.000000pt" height="700.000000pt" viewBox="0 0 700.000000 700.000000"
 preserveAspectRatio="xMidYMid meet">
<metadata>
Created by potrace 1.11, written by Peter Selinger 2001-2013
</metadata>
<g transform="translate(0.000000,700.000000) scale(0.100000,-0.100000)"
fill="#000000" stroke="none">
<path d="M3414 6917 c-23 -7 -48 -17 -55 -22 -8 -6 -26 -17 -41 -24 -55 -28
-190 -176 -234 -256 -101 -185 -161 -350 -193 -530 -6 -33 -13 -71 -16 -85
-23 -116 -24 -485 -1 -607 2 -10 7 -38 10 -63 3 -25 8 -56 11 -70 3 -14 7 -43
10 -65 3 -22 12 -76 20 -120 8 -44 17 -98 20 -120 4 -22 8 -47 10 -55 3 -8 7
-33 11 -55 3 -22 12 -69 20 -105 7 -36 23 -109 35 -164 11 -54 27 -119 35
-144 7 -25 12 -47 11 -49 -2 -1 -35 -4 -75 -5 l-71 -2 -48 44 c-188 174 -361
317 -593 489 -206 152 -177 132 -300 204 -232 137 -519 249 -722 282 -18 3
-44 7 -58 10 -58 11 -150 18 -215 18 -290 -1 -471 -95 -513 -268 -7 -27 -6
-154 0 -185 16 -73 34 -123 68 -195 176 -368 564 -693 1043 -875 88 -34 116
-49 113 -60 -2 -8 -18 -48 -35 -89 -76 -179 -95 -376 -56 -573 l7 -37 -114
-55 c-194 -94 -370 -205 -498 -315 -300 -255 -478 -506 -525 -740 -22 -109 7
-231 71 -295 71 -71 203 -127 334 -141 70 -8 266 -9 278 -2 4 3 34 8 67 12
111 12 330 76 448 129 158 71 206 98 332 180 89 58 305 227 483 378 51 44 103
81 115 83 12 2 56 6 98 9 71 6 192 32 254 56 15 6 30 9 32 7 2 -3 -1 -24 -6
-48 -5 -24 -12 -55 -14 -69 -3 -14 -8 -36 -11 -50 -8 -33 -15 -76 -21 -125 -3
-22 -10 -65 -15 -95 -13 -71 -24 -156 -35 -250 -3 -30 -8 -68 -10 -85 -24
-180 -24 -555 0 -677 3 -12 10 -51 15 -86 28 -169 86 -353 159 -502 87 -177
188 -295 301 -353 63 -32 77 -36 143 -34 61 2 84 8 140 36 75 38 165 122 231
215 107 149 206 405 241 618 3 18 7 44 10 58 23 137 24 470 1 600 -3 14 -7 43
-10 65 -4 36 -19 132 -30 195 -3 14 -7 41 -10 60 -3 19 -10 58 -15 85 -6 28
-12 66 -15 85 -3 19 -10 58 -15 85 -6 28 -13 61 -15 75 -9 47 -17 85 -27 130
-6 25 -13 56 -15 70 -3 14 -7 33 -10 42 -4 14 12 9 78 -21 81 -38 204 -74 283
-85 22 -3 41 -5 42 -6 1 0 150 -120 203 -163 8 -7 31 -23 50 -37 19 -13 37
-27 40 -30 12 -15 223 -163 296 -208 228 -141 508 -260 714 -301 30 -6 66 -14
80 -16 106 -22 378 -29 449 -11 232 56 327 158 325 346 -2 215 -138 466 -380
702 -178 174 -381 308 -638 422 -64 28 -63 26 -41 116 4 14 9 77 12 140 8 163
-25 326 -93 462 -26 51 -29 68 -14 68 21 0 246 114 354 179 260 157 464 337
623 548 179 240 244 481 167 623 -88 163 -325 238 -654 207 -106 -10 -194 -28
-315 -64 -102 -30 -241 -87 -345 -141 -87 -45 -307 -188 -370 -241 -19 -16
-80 -66 -135 -110 -213 -174 -287 -238 -442 -379 -63 -57 -125 -107 -138 -110
-13 -4 -53 -6 -88 -4 l-64 4 17 57 c10 31 21 74 24 96 4 22 11 56 16 76 11 40
28 126 36 179 3 19 9 58 14 85 11 57 19 113 26 170 2 22 7 56 10 74 3 19 7 53
10 75 2 23 6 59 9 81 24 205 25 510 1 655 -2 14 -7 47 -11 73 -4 27 -8 57 -11
68 -5 21 -6 27 -28 122 -97 414 -336 731 -554 735 -31 0 -76 -5 -98 -11z"/>
</g>
</svg>
